<?xml version="1.0" standalone="no"?><!DOCTYPE svg PUBLIC "-//W3C//DTD SVG 1.1//EN" "http://www.w3.org/Graphics/SVG/1.1/DTD/svg11.dtd"><svg t="1743093921088" class="icon" viewBox="0 0 1024 1024" version="1.1" xmlns="http://www.w3.org/2000/svg" p-id="2067" xmlns:xlink="http://www.w3.org/1999/xlink" width="200" height="200"><path d="M965.76 726.4h-55.68c-3.84 0-7.04-3.2-7.04-7.04s3.2-7.04 7.04-7.04h55.68c16.64 0 30.08-13.44 30.08-30.08v-102.4c0-6.4-5.12-11.52-11.52-11.52-3.84 0-7.04-3.2-7.04-7.04V483.84c0-16-12.8-28.8-28.8-28.8-1.92 0-3.2-0.64-4.48-1.92L876.16 390.4c-1.28-1.28-1.92-3.2-1.92-5.12v-16c0-6.4-5.12-11.52-11.52-11.52h-25.6c-2.56-0.64-231.68-48-325.76-27.52-94.08 21.12-251.52 125.44-252.8 126.08-0.64 0.64-1.28 0.64-1.92 0.64l-158.72 42.88C53.76 511.36 28.16 550.4 28.16 604.16v78.08c0 16.64 13.44 30.08 30.08 30.08h79.36c3.84 0 7.04 3.2 7.04 7.04s-3.2 7.04-7.04 7.04H58.24c-24.32 0-44.16-19.84-44.16-44.16V604.16C14.08 544 43.52 499.84 93.44 486.4l157.44-42.24c14.72-9.6 163.2-106.88 256.64-128 95.36-21.12 314.24 23.68 330.88 26.88h23.68c14.08 0 25.6 11.52 25.6 25.6v12.8l63.36 59.52c22.4 1.28 39.68 19.84 39.68 42.88v71.68c10.88 3.2 18.56 12.8 18.56 24.96v102.4c0.64 23.68-19.2 43.52-43.52 43.52z" fill="#211D1C" p-id="2068"></path><path d="M932.48 490.88H659.2c-3.84 0-7.04-3.2-7.04-7.04 0-3.84 3.2-7.04 7.04-7.04h254.72l-78.08-68.48c-1.28-1.28-2.56-3.2-2.56-5.12v-4.48h-1.28l-3.84-0.64s-0.64 0-1.28-0.64c-18.56-5.12-86.4-22.4-167.68-28.8-3.84 0-7.04-3.84-6.4-7.68 0-3.84 3.84-7.04 7.68-6.4 82.56 6.4 151.68 24.32 170.24 29.44l3.84 0.64h5.76c3.84 0 7.04 3.2 7.04 7.04v8.32l89.6 78.72c1.92 1.92 3.2 5.12 1.92 7.68-1.28 2.56-3.84 4.48-6.4 4.48zM618.88 490.88H277.12c-3.2 0-5.76-1.92-6.4-5.12-0.64-3.2 0-5.76 2.56-7.68 39.04-28.16 168.32-104.96 243.2-121.6 14.72-3.2 63.36-4.48 84.48-4.48h17.92c3.84 0 7.04 3.2 7.04 7.04 0 3.84-3.2 7.04-7.04 7.04h-17.92c-25.6 0-69.76 1.92-81.92 4.48-62.08 13.44-167.68 73.6-218.88 106.24h318.72c3.84 0 7.04 3.2 7.04 7.04 0 3.84-3.2 7.04-7.04 7.04z" fill="#00ABE0" p-id="2069"></path><path d="M758.4 726.4H289.92c-3.84 0-7.04-3.2-7.04-7.04s3.2-7.04 7.04-7.04h468.48c3.84 0 7.04 3.2 7.04 7.04s-3.2 7.04-7.04 7.04zM712.96 697.6h-377.6c-3.84 0-7.04-3.2-7.04-7.04s3.2-7.04 7.04-7.04h377.6c3.84 0 7.04 3.2 7.04 7.04s-3.2 7.04-7.04 7.04zM1001.6 697.6h-46.08c-3.84 0-7.04-3.2-7.04-7.04s3.2-7.04 7.04-7.04h46.08c3.84 0 7.04 3.2 7.04 7.04s-3.2 7.04-7.04 7.04zM92.16 697.6H24.96c-3.84 0-7.04-3.2-7.04-7.04s3.2-7.04 7.04-7.04h67.2c3.84 0 7.04 3.2 7.04 7.04s-3.2 7.04-7.04 7.04zM39.04 590.08c-6.4 0-12.16-1.28-17.92-3.84-3.84-1.28-5.12-5.76-3.84-8.96 1.28-3.84 5.76-5.12 8.96-3.84 3.84 1.92 8.32 2.56 12.8 2.56 18.56 0 33.28-14.72 33.28-33.28 0-9.6-3.84-17.92-10.88-24.32-2.56-2.56-3.2-7.04-0.64-9.6 2.56-2.56 7.04-3.2 9.6-0.64 9.6 8.96 15.36 21.76 15.36 34.56 0.64 26.24-20.48 47.36-46.72 47.36z" fill="#211D1C" p-id="2070"></path><path d="M618.88 490.88c-3.84 0-7.04-3.2-7.04-7.04V362.88c0-3.84 3.2-7.04 7.04-7.04 3.84 0 7.04 3.2 7.04 7.04v120.96c0 3.84-3.2 7.04-7.04 7.04z" fill="#00ABE0" p-id="2071"></path><path d="M639.36 656c-3.84 0-7.04-3.2-7.04-7.04V524.16c0-3.84 3.2-7.04 7.04-7.04 3.84 0 7.04 3.2 7.04 7.04v124.8c0 3.84-3.2 7.04-7.04 7.04z" fill="#211D1C" p-id="2072"></path><path d="M659.2 490.88c-3.84 0-7.04-3.2-7.04-7.04V362.88c0-3.84 3.2-7.04 7.04-7.04s7.04 3.2 7.04 7.04v120.96c0 3.84-3.2 7.04-7.04 7.04zM213.76 738.56c-26.24 0-47.36-21.12-47.36-47.36 0-26.24 21.12-47.36 47.36-47.36 26.24 0 47.36 21.12 47.36 47.36 0 25.6-21.12 47.36-47.36 47.36z m0-81.28c-18.56 0-33.92 15.36-33.92 33.92s15.36 33.92 33.92 33.92 33.92-15.36 33.92-33.92c-0.64-19.2-15.36-33.92-33.92-33.92zM834.56 738.56c-26.24 0-47.36-21.12-47.36-47.36 0-26.24 21.12-47.36 47.36-47.36 26.24 0 47.36 21.12 47.36 47.36 0 25.6-21.12 47.36-47.36 47.36z m0-81.28c-18.56 0-33.92 15.36-33.92 33.92s15.36 33.92 33.92 33.92 33.92-15.36 33.92-33.92c-0.64-19.2-15.36-33.92-33.92-33.92z" fill="#00ABE0" p-id="2073"></path><path d="M574.72 554.88h-28.16c-3.84 0-7.04-3.2-7.04-7.04v-24.32c0-3.84 3.2-7.04 7.04-7.04s7.04 3.2 7.04 7.04v17.28h21.12c9.6 0 17.28-7.68 17.28-17.28 0-3.84 3.2-7.04 7.04-7.04s7.04 3.2 7.04 7.04c0 17.92-14.08 31.36-31.36 31.36zM707.84 554.88h-28.16c-3.84 0-7.04-3.2-7.04-7.04v-24.32c0-3.84 3.2-7.04 7.04-7.04s7.04 3.2 7.04 7.04v17.28h21.12c9.6 0 17.28-7.68 17.28-17.28 0-3.84 3.2-7.04 7.04-7.04s7.04 3.2 7.04 7.04c0 17.92-14.08 31.36-31.36 31.36z" fill="#211D1C" p-id="2074"></path><path d="M213.76 778.88c-48.64 0-88.32-39.68-88.32-88.32 0-48.64 39.68-88.32 88.32-88.32 48.64 0 88.32 39.68 88.32 88.32 0 48.64-39.68 88.32-88.32 88.32z m0-162.56c-40.96 0-74.24 33.28-74.24 74.24 0 40.96 33.28 74.24 74.24 74.24 40.96 0 74.24-33.28 74.24-74.24 0-40.96-33.28-74.24-74.24-74.24zM834.56 778.88c-48.64 0-88.32-39.68-88.32-88.32 0-48.64 39.68-88.32 88.32-88.32 48.64 0 88.32 39.68 88.32 88.32 0 48.64-39.68 88.32-88.32 88.32z m0-162.56c-40.96 0-74.24 33.28-74.24 74.24 0 40.96 33.28 74.24 74.24 74.24 40.96 0 74.24-33.28 74.24-74.24 0-40.96-33.28-74.24-74.24-74.24z" fill="#00ABE0" p-id="2075"></path></svg>